PathFileType	4	(X/Y/Z)	/Users/mathieubourgeois/Desktop/Analyse/Traitement/Sujet_08/Data/Transformed_Sujet_08_velo_80.trc
DataRate	CameraRate	NumFrames	NumMarkers	Units	OrigDataRate	OrigDataStartFrame	OrigNumFrames
120.000000	120.000000	4	35	mm	120.000000	234	1878
Frame#	Time	RFHD			RANE			STRN			LANI			LKNE			T10			RHUM			RWRB			C7			LFWT			LTOE			RTOE			LWRA			LBWT			RBWT			RFWT			LKNI			RKNE			LANE			LHEE			LHUM			LRAD			RRAD			RWRA			LWRB			LFHD			LBHD			RBHD			RSHO			LSHO			CLAV			LCAR			RCAR			RANI			RKNI			
		X1	Y1	Z1	X2	Y2	Z2	X3	Y3	Z3	X4	Y4	Z4	X5	Y5	Z5	X6	Y6	Z6	X7	Y7	Z7	X8	Y8	Z8	X9	Y9	Z9	X10	Y10	Z10	X11	Y11	Z11	X12	Y12	Z12	X13	Y13	Z13	X14	Y14	Z14	X15	Y15	Z15	X16	Y16	Z16	X17	Y17	Z17	X18	Y18	Z18	X19	Y19	Z19	X20	Y20	Z20	X21	Y21	Z21	X22	Y22	Z22	X23	Y23	Z23	X24	Y24	Z24	X25	Y25	Z25	X26	Y26	Z26	X27	Y27	Z27	X28	Y28	Z28	X29	Y29	Z29	X30	Y30	Z30	X31	Y31	Z31	X32	Y32	Z32	X33	Y33	Z33	X34	Y34	Z34	X35	Y35	Z35	

235	1.95	240.6480102539062	1380.710083007812	140.4949035644531	-308.1853332519531	407.3972473144531	174.8284759521484	-49.68146896362305	1157.819091796875	7.26130294799797	-24.03947067260741	480.182861328125	-66.01982879638675	42.82612609863283	886.7752075195312	-136.9625701904297	-205.6787872314453	1357.553955078125	19.72061157226552	150.6329650878906	1078.977294921875	204.0469360351562	337.0442199707031	908.5270385742188	257.0177612304688	34.25513076782227	1426.4775390625	17.36727523803702	-266.0005798339844	1100.641967773438	-94.86301422119151	132.6060485839844	384.4645690917969	-122.8835830688477	-188.082015991211	249.5439453125	143.5477447509765	362.2437133789062	939.7811279296875	-171.3079833984375	-402.6543579101562	1151.373657226562	-30.26136398315442	-396.5522766113281	1148.852661132812	102.5158386230468	-241.7720947265625	1087.06884765625	133.4020538330077	36.80470275878907	813.035400390625	-35.39685821533207	-70.05648040771487	727.8640747070312	200.188247680664	-63.20565795898435	471.8457946777344	-145.6648254394532	-106.8797760009765	447.8589477539062	-99.88038635253911	132.7882537841797	1077.227294921875	-181.5517272949219	187.3370971679688	1108.946655273438	-231.7366485595703	190.3108825683593	1102.631958007812	251.0812377929687	362.2900085449219	928.6129760742188	190.0238647460938	327.4904479980469	897.6388549804688	-224.1279296875	288.0556030273438	1363.3916015625	23.65903472900386	213.3528137207031	1484.027465820312	-38.3881568908692	166.1708831787109	1519.935302734375	86.9121551513671	72.21350097656249	1362.980834960938	131.772476196289	58.71094131469728	1365.373657226562	-127.3900146484376	55.33245468139648	1290.908325195312	13.34276676177971	426.1261291503907	917.7123413085938	-252.9352111816406	438.7544555664062	908.7298583984375	278.62939453125	-272.4933166503906	408.4587097167969	98.08132934570307	-51.69039535522462	658.7421875	95.60704040527339	
236	1.958333333333333	240.3055267333984	1381.950439453125	142.6689910888671	-309.0282592773438	420.4385070800781	175.0798339843749	-50.08956527709961	1157.7998046875	7.531500339507979	-22.00790214538574	463.9980163574219	-64.82452392578128	39.38127517700197	874.1846313476562	-137.7970581054688	-206.0509490966797	1357.447021484375	19.45548439025868	150.300308227539	1078.699829101562	204.3046264648437	337.0002746582031	908.4713745117188	257.0592651367188	33.43777465820312	1426.567626953125	18.19388008117667	-265.3460083007812	1099.492065429688	-95.40530395507822	135.999267578125	372.278076171875	-123.0703353881836	-191.9134674072266	260.5901794433594	143.7947998046874	362.2570190429688	939.6983642578125	-171.2386322021484	-402.5694885253906	1150.865356445312	-31.25254821777356	-397.0237121582031	1148.903198242188	101.6828155517577	-242.4779052734375	1087.229858398438	132.8128356933593	33.04840850830079	800.437255859375	-35.310962677002	-64.21148681640628	734.4593505859375	200.4473571777343	-60.92213821411131	457.5363464355469	-145.6685943603516	-104.3021469116211	433.1298828125	-99.53793334960942	132.7119140625	1077.05419921875	-181.2524719238282	187.2525787353516	1108.853759765625	-231.4070587158203	189.8975524902343	1102.279418945312	251.3823852539062	362.1672668457031	928.6697998046875	190.0635986328125	327.4700317382812	897.5810546875	-224.0845031738282	287.7594604492188	1363.589599609375	24.08951759338374	212.9615020751953	1484.192504882812	-37.65903854370124	165.6913299560547	1519.883544921875	87.6746063232421	71.64984130859374	1362.79248046875	132.3131408691405	58.55790328979494	1365.18896484375	-127.0220031738282	54.97671127319336	1290.807495117188	13.79051589965813	426.0985717773438	917.7333984375	-252.9659576416016	438.7449951171874	908.7067260742188	278.6050415039062	-276.45556640625	420.9974060058594	98.11479187011713	-49.82586669921876	666.992431640625	94.15258026123043	
237	1.966666666666667	240.0106506347656	1382.015869140625	143.3247528076171	-309.1681823730469	433.5960693359375	175.2725982666015	-50.56954956054688	1157.711669921875	7.909907817840499	-20.74641609191894	450.8899230957031	-64.8454513549805	36.34936904907228	860.2399291992188	-138.4494781494141	-206.2630767822266	1357.354736328125	19.14458274841298	150.0451202392578	1078.460327148438	204.516372680664	336.9767761230468	908.4410400390625	257.0387878417969	33.07757949829102	1426.483520507812	18.77745246887199	-264.7110595703125	1098.487426757812	-96.03871917724619	138.4463653564453	359.834228515625	-123.2287368774414	-194.7397155761719	271.9771118164062	144.0629425048828	362.2948303222656	939.5821533203125	-171.2059478759766	-402.4042358398438	1150.425537109375	-32.33140563964856	-397.4570617675781	1149.010986328125	100.7304687499999	-243.1356201171875	1087.424194335938	132.2213287353515	28.52445411682129	788.0120239257812	-34.92042160034185	-58.30235671997072	741.439208984375	200.6867675781249	-59.3144950866699	443.3884582519531	-145.9404296875	-102.0416107177734	418.7818908691406	-99.46335601806645	132.7467956542969	1076.9716796875	-180.914535522461	186.935531616211	1108.80126953125	-231.4732513427735	189.5478057861328	1102.007690429688	251.6551971435547	362.1172790527344	928.7274780273438	190.0352630615234	327.4770812988281	897.5196533203125	-224.0849609375	287.5421752929688	1363.783325195312	24.73265838623042	212.6569976806641	1484.379028320312	-36.90816879272467	165.2686309814453	1519.849243164062	88.4231643676757	71.21984863281249	1362.632080078125	133.0083618164062	58.480281829834	1365.033203125	-126.5005950927735	54.65739059448242	1290.68798828125	14.34341430664055	426.0739746093751	917.7708129882812	-253.0628356933594	438.7090759277343	908.6041259765625	278.5348510742188	-277.0464172363281	433.4179382324219	98.26660156249994	-45.27315139770509	674.421142578125	94.26696014404293	
238	1.975	239.784423828125	1382.054443359375	143.9847869873046	-308.6281127929688	446.8599243164062	175.421401977539	-50.89360046386719	1157.664428710938	8.308513641357344	-20.22406959533691	437.4134521484375	-65.25727844238284	31.25038146972658	848.3436279296875	-139.017807006836	-206.3787384033203	1357.283203125	18.80970573425282	149.8209838867187	1078.15966796875	204.6790313720703	336.9647521972656	908.3988647460938	256.9476928710938	33.58915328979492	1426.489013671875	18.8532009124755	-263.9519348144531	1097.6015625	-96.70029449462901	139.9104919433594	347.2140502929688	-123.3862915039062	-196.6106567382813	283.7537231445312	144.2594757080078	362.3523559570312	939.40771484375	-171.2230224609375	-402.1374816894531	1150.068237304688	-33.40479278564465	-397.7841796875	1149.1572265625	99.72724151611317	-243.7315979003907	1087.65576171875	131.5309600830077	23.16623878479004	776.022216796875	-34.25866699218755	-52.39034652709963	748.7900390625	200.8201751708984	-58.56821441650388	429.3975830078125	-146.3951263427735	-100.9703903198242	404.7709655761719	-99.85124969482426	132.8621215820313	1076.924926757812	-180.5465850830078	187.013916015625	1108.8134765625	-231.1133422851563	189.3000946044922	1101.783325195312	251.9026794433593	362.1074523925781	928.7687377929688	189.9349670410156	327.5007934570312	897.4866333007812	-224.1466369628907	287.4298400878906	1364.083374023438	25.40208053588862	212.4165344238281	1484.570434570312	-36.16659164428717	164.8983306884766	1519.8349609375	89.20532226562491	70.80638122558592	1362.498413085938	133.6735076904296	58.53129959106447	1364.947631835938	-125.9148330688477	54.52366256713867	1290.590209960938	14.85401630401604	426.0632324218751	917.78662109375	-253.1988220214844	438.7389526367187	908.5802001953125	278.3779602050781	-276.6387634277344	446.0888366699219	98.33110809326166	-40.33138275146486	682.2246704101562	94.42804718017574	
